<svg width="68" height="68" viewBox="0 0 68 68" fill="none" xmlns="http://www.w3.org/2000/svg">
<rect width="68" height="68" rx="8" fill="#E7F0FA"/>
<g clip-path="url(#clip0_1896_1112)">
<path opacity="0.2" d="M44.7207 23.373C44.8698 23.3295 45.0269 23.3214 45.1796 23.3491C45.3324 23.3769 45.4765 23.4399 45.6007 23.533C45.7249 23.6262 45.8257 23.7469 45.8952 23.8858C45.9646 24.0246 46.0007 24.1778 46.0007 24.333V41.6663C46.0007 41.8216 45.9646 41.9747 45.8952 42.1135C45.8257 42.2524 45.7249 42.3732 45.6007 42.4663C45.4765 42.5595 45.3324 42.6224 45.1796 42.6502C45.0269 42.678 44.8698 42.6698 44.7207 42.6263L33 39.2078V26.7915L44.7207 23.373Z" fill="#0A65CC"/>
<path d="M46.0007 24.333V41.6663C46.0007 41.8216 45.9646 41.9747 45.8952 42.1135C45.8257 42.2524 45.7249 42.3732 45.6007 42.4663C45.4765 42.5595 45.3324 42.6224 45.1796 42.6502C45.0269 42.678 44.8698 42.6698 44.7207 42.6263L22.7207 36.2097C22.513 36.1491 22.3306 36.0228 22.2007 35.8497C22.0709 35.6766 22.0007 35.466 22.0007 35.2497V30.7497C22.0007 30.5333 22.0709 30.3228 22.2007 30.1497C22.3306 29.9766 22.513 29.8503 22.7207 29.7897L44.7207 23.373C44.8698 23.3295 45.0269 23.3214 45.1796 23.3491C45.3324 23.3769 45.4765 23.4399 45.6007 23.533C45.7249 23.6262 45.8257 23.7469 45.8952 23.8858C45.9646 24.0246 46.0007 24.1778 46.0007 24.333V24.333Z" stroke="#0A65CC" stroke-width="2" stroke-linecap="round" stroke-linejoin="round"/>
<path d="M27 37.4582V42.0001C27 42.2653 27.1054 42.5197 27.2929 42.7072C27.4804 42.8948 27.7348 43.0001 28 43.0001H32C32.2652 43.0001 32.5196 42.8948 32.7071 42.7072C32.8946 42.5197 33 42.2653 33 42.0001V26.792" stroke="#0A65CC" stroke-width="2" stroke-linecap="round" stroke-linejoin="round"/>
</g>
<defs>
<clipPath id="clip0_1896_1112">
<rect width="32" height="32" fill="white" transform="matrix(-1 0 0 1 50 18)"/>
</clipPath>
</defs>
</svg>
