<svg width="68" height="68" viewBox="0 0 68 68" fill="none" xmlns="http://www.w3.org/2000/svg">
<rect width="68" height="68" rx="8" fill="#E7F0FA"/>
<path opacity="0.2" d="M42.9996 33.001L40.2022 25.5414C40.1406 25.3771 40.0368 25.2319 39.9013 25.1204C39.7659 25.0088 39.6034 24.9349 39.4303 24.9061L21.9996 22.001L24.9047 39.4317C24.9336 39.6048 25.0075 39.7672 25.119 39.9027C25.2305 40.0382 25.3757 40.142 25.54 40.2036L32.9996 43.001L42.9996 33.001ZM30 32.5002C30 32.0058 30.1466 31.5224 30.4213 31.1113C30.696 30.7002 31.0865 30.3798 31.5433 30.1905C32.0001 30.0013 32.5028 29.9518 32.9877 30.0483C33.4727 30.1447 33.9181 30.3828 34.2678 30.7325C34.6174 31.0821 34.8555 31.5276 34.952 32.0125C35.0484 32.4975 34.9989 33.0001 34.8097 33.457C34.6205 33.9138 34.3 34.3042 33.8889 34.5789C33.4778 34.8536 32.9945 35.0002 32.5 35.0002C32.1717 35.0002 31.8466 34.9356 31.5433 34.81C31.24 34.6843 30.9644 34.5002 30.7322 34.268C30.5001 34.0359 30.3159 33.7603 30.1903 33.457C30.0647 33.1536 30 32.8286 30 32.5002Z" fill="#0A65CC"/>
<path d="M30 32.5C30 33.8807 31.1193 35 32.5 35C33.8807 35 35 33.8807 35 32.5C35 31.1193 33.8807 30 32.5 30C31.1193 30 30 31.1193 30 32.5Z" stroke="#0A65CC" stroke-width="2" stroke-linecap="round" stroke-linejoin="round"/>
<path d="M21.9996 22.001L30.7322 30.7325" stroke="#0A65CC" stroke-width="2" stroke-linecap="round" stroke-linejoin="round"/>
<path d="M21.9996 22.001L24.9048 39.4317C24.9336 39.6048 25.0075 39.7672 25.119 39.9027C25.2305 40.0382 25.3757 40.142 25.54 40.2036L32.9996 43.001L42.9996 33.001L40.2023 25.5414C40.1407 25.3771 40.0369 25.2319 39.9014 25.1203C39.7659 25.0088 39.6034 24.9349 39.4303 24.9061L21.9996 22.001Z" stroke="#0A65CC" stroke-width="2" stroke-linecap="round" stroke-linejoin="round"/>
<path d="M32.9995 43.001L36.2924 46.2939C36.3853 46.3867 36.4955 46.4604 36.6169 46.5106C36.7382 46.5609 36.8682 46.5868 36.9995 46.5868C37.1309 46.5868 37.2609 46.5609 37.3822 46.5106C37.5035 46.4604 37.6138 46.3867 37.7066 46.2939L46.2924 37.7081C46.48 37.5205 46.5853 37.2662 46.5853 37.001C46.5853 36.7358 46.48 36.4814 46.2924 36.2939L42.9995 33.001" stroke="#0A65CC" stroke-width="2" stroke-linecap="round" stroke-linejoin="round"/>
</svg>
