<svg width="68" height="68" viewBox="0 0 68 68" fill="none" xmlns="http://www.w3.org/2000/svg">
<rect width="68" height="68" rx="8" fill="#E7F0FA"/>
<g clip-path="url(#clip0_1896_1134)">
<path opacity="0.2" d="M40.5 43C42.433 43 44 41.433 44 39.5C44 37.567 42.433 36 40.5 36C38.567 36 37 37.567 37 39.5C37 41.433 38.567 43 40.5 43Z" fill="#0A65CC"/>
<path opacity="0.2" d="M24.5 47C26.433 47 28 45.433 28 43.5C28 41.567 26.433 40 24.5 40C22.567 40 21 41.567 21 43.5C21 45.433 22.567 47 24.5 47Z" fill="#0A65CC"/>
<path d="M40.5 43C42.433 43 44 41.433 44 39.5C44 37.567 42.433 36 40.5 36C38.567 36 37 37.567 37 39.5C37 41.433 38.567 43 40.5 43Z" stroke="#0A65CC" stroke-width="2" stroke-linecap="round" stroke-linejoin="round"/>
<path d="M24.5 47C26.433 47 28 45.433 28 43.5C28 41.567 26.433 40 24.5 40C22.567 40 21 41.567 21 43.5C21 45.433 22.567 47 24.5 47Z" stroke="#0A65CC" stroke-width="2" stroke-linecap="round" stroke-linejoin="round"/>
<path d="M44 28L28 32" stroke="#0A65CC" stroke-width="2" stroke-linecap="round" stroke-linejoin="round"/>
<path d="M28 43.5V26L44 22V39.5" stroke="#0A65CC" stroke-width="2" stroke-linecap="round" stroke-linejoin="round"/>
</g>
<defs>
<clipPath id="clip0_1896_1134">
<rect width="32" height="32" fill="white" transform="translate(18 18)"/>
</clipPath>
</defs>
</svg>
