<svg width="72" height="72" viewBox="0 0 72 72" fill="none" xmlns="http://www.w3.org/2000/svg">
<rect width="72" height="72" rx="36" fill="white"/>
<g clip-path="url(#clip0_1896_1051)">
<path opacity="0.2" d="M34.4994 44.999C40.2984 44.999 44.9994 40.298 44.9994 34.499C44.9994 28.7 40.2984 23.999 34.4994 23.999C28.7004 23.999 23.9994 28.7 23.9994 34.499C23.9994 40.298 28.7004 44.999 34.4994 44.999Z" fill="#0A65CC"/>
<path d="M30.4994 34.5H38.4994" stroke="#0A65CC" stroke-width="2" stroke-linecap="round" stroke-linejoin="round"/>
<path d="M34.4994 30.5V38.5" stroke="#0A65CC" stroke-width="2" stroke-linecap="round" stroke-linejoin="round"/>
<path d="M34.4994 44.999C40.2984 44.999 44.9994 40.298 44.9994 34.499C44.9994 28.7 40.2984 23.999 34.4994 23.999C28.7004 23.999 23.9994 28.7 23.9994 34.499C23.9994 40.298 28.7004 44.999 34.4994 44.999Z" stroke="#0A65CC" stroke-width="2" stroke-linecap="round" stroke-linejoin="round"/>
<path d="M41.9236 41.9248L47.9987 47.9999" stroke="#0A65CC" stroke-width="2" stroke-linecap="round" stroke-linejoin="round"/>
</g>
<defs>
<clipPath id="clip0_1896_1051">
<rect width="32" height="32" fill="white" transform="translate(20 20)"/>
</clipPath>
</defs>
</svg>
