<svg width="72" height="72" viewBox="0 0 72 72" fill="none" xmlns="http://www.w3.org/2000/svg">
<rect width="72" height="72" rx="4" fill="#0A65CC"/>
<g clip-path="url(#clip0_1942_19)">
<path opacity="0.2" d="M38.499 49.7471V22.2471C38.499 21.9155 38.3673 21.5976 38.1328 21.3632C37.8984 21.1288 37.5805 20.9971 37.249 20.9971H22.249C21.9174 20.9971 21.5995 21.1288 21.3651 21.3632C21.1307 21.5976 20.999 21.9155 20.999 22.2471V49.7471" fill="white"/>
<path d="M18.5 49.7471H53.5" stroke="white" stroke-width="2" stroke-linecap="round" stroke-linejoin="round"/>
<path d="M38.499 49.7471V22.2471C38.499 21.9155 38.3673 21.5976 38.1328 21.3632C37.8984 21.1288 37.5805 20.9971 37.249 20.9971H22.249C21.9174 20.9971 21.5995 21.1288 21.3651 21.3632C21.1307 21.5976 20.999 21.9155 20.999 22.2471V49.7471" stroke="white" stroke-width="2" stroke-linecap="round" stroke-linejoin="round"/>
<path d="M50.999 49.7471V32.2471C50.999 31.9155 50.8673 31.5976 50.6329 31.3632C50.3984 31.1288 50.0805 30.9971 49.749 30.9971H38.499" stroke="white" stroke-width="2" stroke-linecap="round" stroke-linejoin="round"/>
<path d="M25.999 27.2471H30.999" stroke="white" stroke-width="2" stroke-linecap="round" stroke-linejoin="round"/>
<path d="M28.499 37.2471H33.499" stroke="white" stroke-width="2" stroke-linecap="round" stroke-linejoin="round"/>
<path d="M25.999 43.4971H30.999" stroke="white" stroke-width="2" stroke-linecap="round" stroke-linejoin="round"/>
<path d="M43.499 43.4971H45.999" stroke="white" stroke-width="2" stroke-linecap="round" stroke-linejoin="round"/>
<path d="M43.499 37.2471H45.999" stroke="white" stroke-width="2" stroke-linecap="round" stroke-linejoin="round"/>
</g>
<defs>
<clipPath id="clip0_1942_19">
<rect width="40" height="40" fill="white" transform="translate(16 16)"/>
</clipPath>
</defs>
</svg>
