<svg width="72" height="72" viewBox="0 0 72 72" fill="none" xmlns="http://www.w3.org/2000/svg">
<rect width="72" height="72" rx="4" fill="#E7F0FA"/>
<g clip-path="url(#clip0_1942_35)">
<path opacity="0.2" d="M29.7501 41C34.2374 41 37.8751 37.3623 37.8751 32.875C37.8751 28.3877 34.2374 24.75 29.7501 24.75C25.2628 24.75 21.6251 28.3877 21.6251 32.875C21.6251 37.3623 25.2628 41 29.7501 41Z" fill="#0A65CC"/>
<path d="M29.7501 41C34.2374 41 37.8751 37.3623 37.8751 32.875C37.8751 28.3877 34.2374 24.75 29.7501 24.75C25.2628 24.75 21.6251 28.3877 21.6251 32.875C21.6251 37.3623 25.2628 41 29.7501 41Z" stroke="#0A65CC" stroke-width="2" stroke-miterlimit="10"/>
<path d="M40.2833 25.0526C41.4009 24.7377 42.5729 24.666 43.7205 24.8422C44.8681 25.0184 45.9646 25.4386 46.9361 26.0743C47.9077 26.7099 48.7317 27.5465 49.3528 28.5274C49.9738 29.5084 50.3774 30.6111 50.5364 31.7612C50.6954 32.9113 50.6061 34.0821 50.2745 35.1948C49.9429 36.3075 49.3767 37.3362 48.614 38.2116C47.8514 39.0871 46.91 39.7889 45.8533 40.2699C44.7965 40.7508 43.649 40.9998 42.488 40.9999" stroke="#0A65CC" stroke-width="2" stroke-linecap="round" stroke-linejoin="round"/>
<path d="M18.4993 46.8432C19.7683 45.0382 21.4529 43.565 23.411 42.548C25.369 41.531 27.543 41.0001 29.7494 41C31.9559 40.9999 34.1299 41.5307 36.0881 42.5476C38.0462 43.5644 39.7309 45.0375 41 46.8424" stroke="#0A65CC" stroke-width="2" stroke-linecap="round" stroke-linejoin="round"/>
<path d="M42.4879 41C44.6945 40.9984 46.8691 41.5285 48.8274 42.5455C50.7857 43.5625 52.4701 45.0364 53.738 46.8424" stroke="#0A65CC" stroke-width="2" stroke-linecap="round" stroke-linejoin="round"/>
</g>
<defs>
<clipPath id="clip0_1942_35">
<rect width="40" height="40" fill="white" transform="translate(16 16)"/>
</clipPath>
</defs>
</svg>
