<svg width="72" height="72" viewBox="0 0 72 72" fill="none" xmlns="http://www.w3.org/2000/svg">
<rect width="72" height="72" rx="4" fill="#E7F0FA"/>
<g clip-path="url(#clip0_1942_47)">
<path opacity="0.2" d="M36.0001 39.7496C30.7341 39.7578 25.5596 38.3735 21.0013 35.7368V48.4996C21.0013 48.6637 21.0336 48.8263 21.0964 48.9779C21.1592 49.1296 21.2513 49.2674 21.3674 49.3834C21.4835 49.4995 21.6213 49.5916 21.7729 49.6544C21.9246 49.7172 22.0871 49.7496 22.2513 49.7496H49.7513C49.9154 49.7496 50.078 49.7172 50.2296 49.6544C50.3813 49.5916 50.5191 49.4995 50.6352 49.3834C50.7512 49.2674 50.8433 49.1296 50.9061 48.9779C50.969 48.8263 51.0013 48.6637 51.0013 48.4996V35.7354C46.4424 38.3729 41.267 39.7578 36.0001 39.7496Z" fill="#0A65CC"/>
<path d="M49.7513 27.25H22.2513C21.5609 27.25 21.0013 27.8096 21.0013 28.5V48.5C21.0013 49.1904 21.5609 49.75 22.2513 49.75H49.7513C50.4416 49.75 51.0013 49.1904 51.0013 48.5V28.5C51.0013 27.8096 50.4416 27.25 49.7513 27.25Z" stroke="#0A65CC" stroke-width="2" stroke-linecap="round" stroke-linejoin="round"/>
<path d="M42.25 27.25V24.75C42.25 24.087 41.9866 23.4511 41.5178 22.9822C41.0489 22.5134 40.413 22.25 39.75 22.25H32.25C31.587 22.25 30.9511 22.5134 30.4822 22.9822C30.0134 23.4511 29.75 24.087 29.75 24.75V27.25" stroke="#0A65CC" stroke-width="2" stroke-linecap="round" stroke-linejoin="round"/>
<path d="M51.0013 35.7363C46.4424 38.3739 41.2669 39.7588 36 39.7505C30.734 39.7588 25.5594 38.3744 21.001 35.7377" stroke="#0A65CC" stroke-width="2" stroke-linecap="round" stroke-linejoin="round"/>
<path d="M34.125 34.75H37.875" stroke="#0A65CC" stroke-width="2" stroke-linecap="round" stroke-linejoin="round"/>
</g>
<defs>
<clipPath id="clip0_1942_47">
<rect width="40" height="40" fill="white" transform="translate(16 16)"/>
</clipPath>
</defs>
</svg>
